<svg xmlns="http://www.w3.org/2000/svg" width="297.521" height="26.048" viewBox="0 0 297.521 26.048">
  <g id="Group_19" data-name="Group 19" transform="translate(19077.5 -3022.63)">
    <g id="Path_50" data-name="Path 50" transform="translate(-18980.398 3022.63)" fill="none">
      <path d="M0,0H21.548V26.048H0Z" stroke="none"/>
      <path d="M 5 5 L 5 21.04833984375 L 16.54751968383789 21.04833984375 L 16.54751968383789 5 L 5 5 M 0 0 L 21.54751968383789 0 L 21.54751968383789 26.04833984375 L 0 26.04833984375 L 0 0 Z" stroke="none" fill="#707070"/>
    </g>
    <g id="Path_53" data-name="Path 53" transform="translate(-18890.893 3022.63)" fill="none">
      <path d="M0,0H21.548V26.048H0Z" stroke="none"/>
      <path d="M 5 5 L 5 21.04833984375 L 16.54751968383789 21.04833984375 L 16.54751968383789 5 L 5 5 M 0 0 L 21.54751968383789 0 L 21.54751968383789 26.04833984375 L 0 26.04833984375 L 0 0 Z" stroke="none" fill="#707070"/>
    </g>
    <line id="Line_10" data-name="Line 10" x1="97.24" transform="translate(-19077.5 3035.897)" fill="none" stroke="#707070" stroke-width="5"/>
    <line id="Line_11" data-name="Line 11" x2="69.063" transform="translate(-18959.816 3035.897)" fill="none" stroke="#707070" stroke-width="5"/>
    <line id="Line_12" data-name="Line 12" x2="91.163" transform="translate(-18871.141 3035.897)" fill="none" stroke="#707070" stroke-width="5"/>
  </g>
</svg>
